<svg xmlns="http://www.w3.org/2000/svg" width="728" height="408" viewBox="0 0 728 408" font-family="Courier New, monospace">
<rect width="728" height="408" fill="#000000"/>
<rect x="2.08" y="46.08" width="21.84" height="21.84" rx="5.72" fill="#1420c8"/>
<rect x="28.08" y="46.08" width="21.84" height="21.84" rx="5.72" fill="#1420c8"/>
<rect x="54.08" y="46.08" width="21.84" height="21.84" rx="5.72" fill="#1420c8"/>
<rect x="80.08" y="46.08" width="21.84" height="21.84" rx="5.72" fill="#1420c8"/>
<rect x="106.08" y="46.08" width="21.84" height="21.84" rx="5.72" fill="#1420c8"/>
<rect x="132.08" y="46.08" width="21.84" height="21.84" rx="5.72" fill="#1420c8"/>
<rect x="158.08" y="46.08" width="21.84" height="21.84" rx="5.72" fill="#1420c8"/>
<rect x="184.08" y="46.08" width="21.84" height="21.84" rx="5.72" fill="#1420c8"/>
<rect x="210.08" y="46.08" width="21.84" height="21.84" rx="5.72" fill="#1420c8"/>
<rect x="236.08" y="46.08" width="21.84" height="21.84" rx="5.72" fill="#1420c8"/>
<rect x="262.08" y="46.08" width="21.84" height="21.84" rx="5.72" fill="#1420c8"/>
<rect x="288.08" y="46.08" width="21.84" height="21.84" rx="5.72" fill="#1420c8"/>
<rect x="314.08" y="46.08" width="21.84" height="21.84" rx="5.72" fill="#1420c8"/>
<rect x="340.08" y="46.08" width="21.84" height="21.84" rx="5.72" fill="#1420c8"/>
<rect x="366.08" y="46.08" width="21.84" height="21.84" rx="5.72" fill="#1420c8"/>
<rect x="392.08" y="46.08" width="21.84" height="21.84" rx="5.72" fill="#1420c8"/>
<rect x="418.08" y="46.08" width="21.84" height="21.84" rx="5.72" fill="#1420c8"/>
<rect x="444.08" y="46.08" width="21.84" height="21.84" rx="5.72" fill="#1420c8"/>
<rect x="470.08" y="46.08" width="21.84" height="21.84" rx="5.72" fill="#1420c8"/>
<rect x="496.08" y="46.08" width="21.84" height="21.84" rx="5.72" fill="#1420c8"/>
<rect x="522.08" y="46.08" width="21.84" height="21.84" rx="5.72" fill="#1420c8"/>
<rect x="548.08" y="46.08" width="21.84" height="21.84" rx="5.72" fill="#1420c8"/>
<rect x="574.08" y="46.08" width="21.84" height="21.84" rx="5.72" fill="#1420c8"/>
<rect x="600.08" y="46.08" width="21.84" height="21.84" rx="5.72" fill="#1420c8"/>
<rect x="626.08" y="46.08" width="21.84" height="21.84" rx="5.72" fill="#1420c8"/>
<rect x="652.08" y="46.08" width="21.84" height="21.84" rx="5.72" fill="#1420c8"/>
<rect x="678.08" y="46.08" width="21.84" height="21.84" rx="5.72" fill="#1420c8"/>
<rect x="704.08" y="46.08" width="21.84" height="21.84" rx="5.72" fill="#1420c8"/>
<rect x="2.08" y="72.08" width="21.84" height="21.84" rx="5.72" fill="#1420c8"/>
<circle cx="39.0" cy="83.0" r="2.86" fill="#ffd9a0"/>
<circle cx="65.0" cy="83.0" r="2.86" fill="#ffd9a0"/>
<circle cx="91.0" cy="83.0" r="2.86" fill="#ffd9a0"/>
<circle cx="117.0" cy="83.0" r="2.86" fill="#ffd9a0"/>
<circle cx="143.0" cy="83.0" r="2.86" fill="#ffd9a0"/>
<circle cx="169.0" cy="83.0" r="2.86" fill="#ffd9a0"/>
<circle cx="195.0" cy="83.0" r="2.86" fill="#ffd9a0"/>
<circle cx="221.0" cy="83.0" r="2.86" fill="#ffd9a0"/>
<circle cx="247.0" cy="83.0" r="2.86" fill="#ffd9a0"/>
<circle cx="273.0" cy="83.0" r="2.86" fill="#ffd9a0"/>
<circle cx="299.0" cy="83.0" r="2.86" fill="#ffd9a0"/>
<circle cx="325.0" cy="83.0" r="2.86" fill="#ffd9a0"/>
<circle cx="351.0" cy="83.0" r="2.86" fill="#ffd9a0"/>
<circle cx="377.0" cy="83.0" r="2.86" fill="#ffd9a0"/>
<circle cx="403.0" cy="83.0" r="2.86" fill="#ffd9a0"/>
<circle cx="429.0" cy="83.0" r="2.86" fill="#ffd9a0"/>
<circle cx="455.0" cy="83.0" r="2.86" fill="#ffd9a0"/>
<circle cx="481.0" cy="83.0" r="2.86" fill="#ffd9a0"/>
<circle cx="507.0" cy="83.0" r="2.86" fill="#ffd9a0"/>
<circle cx="533.0" cy="83.0" r="2.86" fill="#ffd9a0"/>
<circle cx="559.0" cy="83.0" r="2.86" fill="#ffd9a0"/>
<circle cx="585.0" cy="83.0" r="2.86" fill="#ffd9a0"/>
<circle cx="611.0" cy="83.0" r="2.86" fill="#ffd9a0"/>
<circle cx="637.0" cy="83.0" r="2.86" fill="#ffd9a0"/>
<circle cx="663.0" cy="83.0" r="2.86" fill="#ffd9a0"/>
<circle cx="689.0" cy="83.0" r="2.86" fill="#ffd9a0"/>
<rect x="704.08" y="72.08" width="21.84" height="21.84" rx="5.72" fill="#1420c8"/>
<rect x="2.08" y="98.08" width="21.84" height="21.84" rx="5.72" fill="#1420c8"/>
<circle cx="39.0" cy="109.0" r="2.86" fill="#ffd9a0"/>
<text x="91.0" y="109.0" font-size="23.4" text-anchor="middle" dominant-baseline="central">🍒</text>
<circle cx="117.0" cy="109.0" r="2.86" fill="#ffd9a0"/>
<circle cx="143.0" cy="109.0" r="2.86" fill="#ffd9a0"/>
<circle cx="169.0" cy="109.0" r="2.86" fill="#ffd9a0"/>
<circle cx="195.0" cy="109.0" r="2.86" fill="#ffd9a0"/>
<circle cx="221.0" cy="109.0" r="2.86" fill="#ffd9a0"/>
<circle cx="247.0" cy="109.0" r="2.86" fill="#ffd9a0"/>
<circle cx="273.0" cy="109.0" r="2.86" fill="#ffd9a0"/>
<circle cx="299.0" cy="109.0" r="2.86" fill="#ffd9a0"/>
<circle cx="325.0" cy="109.0" r="2.86" fill="#ffd9a0"/>
<circle cx="351.0" cy="109.0" r="2.86" fill="#ffd9a0"/>
<circle cx="377.0" cy="109.0" r="2.86" fill="#ffd9a0"/>
<circle cx="403.0" cy="109.0" r="2.86" fill="#ffd9a0"/>
<circle cx="429.0" cy="109.0" r="2.86" fill="#ffd9a0"/>
<circle cx="455.0" cy="109.0" r="2.86" fill="#ffd9a0"/>
<circle cx="481.0" cy="109.0" r="2.86" fill="#ffd9a0"/>
<circle cx="507.0" cy="109.0" r="2.86" fill="#ffd9a0"/>
<circle cx="533.0" cy="109.0" r="2.86" fill="#ffd9a0"/>
<circle cx="559.0" cy="109.0" r="2.86" fill="#ffd9a0"/>
<circle cx="585.0" cy="109.0" r="2.86" fill="#ffd9a0"/>
<circle cx="611.0" cy="109.0" r="2.86" fill="#ffd9a0"/>
<text x="637.0" y="109.0" font-size="23.4" text-anchor="middle" dominant-baseline="central">🍒</text>
<circle cx="689.0" cy="109.0" r="2.86" fill="#ffd9a0"/>
<rect x="704.08" y="98.08" width="21.84" height="21.84" rx="5.72" fill="#1420c8"/>
<rect x="2.08" y="124.08" width="21.84" height="21.84" rx="5.72" fill="#1420c8"/>
<circle cx="39.0" cy="135.0" r="2.86" fill="#ffd9a0"/>
<circle cx="65.0" cy="135.0" r="2.86" fill="#ffd9a0"/>
<rect x="80.08" y="124.08" width="21.84" height="21.84" rx="5.72" fill="#1420c8"/>
<circle cx="117.0" cy="135.0" r="2.86" fill="#ffd9a0"/>
<circle cx="143.0" cy="135.0" r="2.86" fill="#ffd9a0"/>
<circle cx="169.0" cy="135.0" r="2.86" fill="#ffd9a0"/>
<rect x="184.08" y="124.08" width="21.84" height="21.84" rx="5.72" fill="#1420c8"/>
<circle cx="221.0" cy="135.0" r="2.86" fill="#ffd9a0"/>
<circle cx="247.0" cy="135.0" r="2.86" fill="#ffd9a0"/>
<circle cx="273.0" cy="135.0" r="2.86" fill="#ffd9a0"/>
<rect x="288.08" y="124.08" width="21.84" height="21.84" rx="5.72" fill="#1420c8"/>
<circle cx="325.0" cy="135.0" r="2.86" fill="#ffd9a0"/>
<circle cx="351.0" cy="135.0" r="2.86" fill="#ffd9a0"/>
<circle cx="377.0" cy="135.0" r="2.86" fill="#ffd9a0"/>
<circle cx="403.0" cy="135.0" r="2.86" fill="#ffd9a0"/>
<rect x="418.08" y="124.08" width="21.84" height="21.84" rx="5.72" fill="#1420c8"/>
<circle cx="455.0" cy="135.0" r="2.86" fill="#ffd9a0"/>
<circle cx="481.0" cy="135.0" r="2.86" fill="#ffd9a0"/>
<circle cx="507.0" cy="135.0" r="2.86" fill="#ffd9a0"/>
<rect x="522.08" y="124.08" width="21.84" height="21.84" rx="5.72" fill="#1420c8"/>
<circle cx="559.0" cy="135.0" r="2.86" fill="#ffd9a0"/>
<circle cx="585.0" cy="135.0" r="2.86" fill="#ffd9a0"/>
<circle cx="611.0" cy="135.0" r="2.86" fill="#ffd9a0"/>
<rect x="626.08" y="124.08" width="21.84" height="21.84" rx="5.72" fill="#1420c8"/>
<circle cx="663.0" cy="135.0" r="2.86" fill="#ffd9a0"/>
<circle cx="689.0" cy="135.0" r="2.86" fill="#ffd9a0"/>
<rect x="704.08" y="124.08" width="21.84" height="21.84" rx="5.72" fill="#1420c8"/>
<rect x="2.08" y="150.08" width="21.84" height="21.84" rx="5.72" fill="#1420c8"/>
<circle cx="39.0" cy="161.0" r="2.86" fill="#ffd9a0"/>
<circle cx="65.0" cy="161.0" r="2.86" fill="#ffd9a0"/>
<rect x="80.08" y="150.08" width="21.84" height="21.84" rx="5.72" fill="#1420c8"/>
<circle cx="117.0" cy="161.0" r="2.86" fill="#ffd9a0"/>
<circle cx="143.0" cy="161.0" r="2.86" fill="#ffd9a0"/>
<circle cx="169.0" cy="161.0" r="2.86" fill="#ffd9a0"/>
<rect x="184.08" y="150.08" width="21.84" height="21.84" rx="5.72" fill="#1420c8"/>
<circle cx="221.0" cy="161.0" r="2.86" fill="#ffd9a0"/>
<circle cx="247.0" cy="161.0" r="2.86" fill="#ffd9a0"/>
<circle cx="273.0" cy="161.0" r="2.86" fill="#ffd9a0"/>
<rect x="288.08" y="150.08" width="21.84" height="21.84" rx="5.72" fill="#1420c8"/>
<circle cx="325.0" cy="161.0" r="2.86" fill="#ffd9a0"/>
<circle cx="351.0" cy="161.0" r="2.86" fill="#ffd9a0"/>
<circle cx="377.0" cy="161.0" r="2.86" fill="#ffd9a0"/>
<circle cx="403.0" cy="161.0" r="2.86" fill="#ffd9a0"/>
<rect x="418.08" y="150.08" width="21.84" height="21.84" rx="5.72" fill="#1420c8"/>
<circle cx="455.0" cy="161.0" r="2.86" fill="#ffd9a0"/>
<circle cx="481.0" cy="161.0" r="2.86" fill="#ffd9a0"/>
<circle cx="507.0" cy="161.0" r="2.86" fill="#ffd9a0"/>
<rect x="522.08" y="150.08" width="21.84" height="21.84" rx="5.72" fill="#1420c8"/>
<circle cx="559.0" cy="161.0" r="2.86" fill="#ffd9a0"/>
<circle cx="585.0" cy="161.0" r="2.86" fill="#ffd9a0"/>
<circle cx="611.0" cy="161.0" r="2.86" fill="#ffd9a0"/>
<rect x="626.08" y="150.08" width="21.84" height="21.84" rx="5.72" fill="#1420c8"/>
<circle cx="663.0" cy="161.0" r="2.86" fill="#ffd9a0"/>
<circle cx="689.0" cy="161.0" r="2.86" fill="#ffd9a0"/>
<rect x="704.08" y="150.08" width="21.84" height="21.84" rx="5.72" fill="#1420c8"/>
<rect x="2.08" y="176.08" width="21.84" height="21.84" rx="5.72" fill="#1420c8"/>
<circle cx="39.0" cy="187.0" r="2.86" fill="#ffd9a0"/>
<circle cx="65.0" cy="187.0" r="2.86" fill="#ffd9a0"/>
<circle cx="91.0" cy="187.0" r="2.86" fill="#ffd9a0"/>
<circle cx="117.0" cy="187.0" r="2.86" fill="#ffd9a0"/>
<circle cx="143.0" cy="187.0" r="2.86" fill="#ffd9a0"/>
<circle cx="169.0" cy="187.0" r="2.86" fill="#ffd9a0"/>
<circle cx="195.0" cy="187.0" r="2.86" fill="#ffd9a0"/>
<circle cx="221.0" cy="187.0" r="2.86" fill="#ffd9a0"/>
<circle cx="247.0" cy="187.0" r="2.86" fill="#ffd9a0"/>
<circle cx="273.0" cy="187.0" r="2.86" fill="#ffd9a0"/>
<circle cx="299.0" cy="187.0" r="2.86" fill="#ffd9a0"/>
<circle cx="325.0" cy="187.0" r="2.86" fill="#ffd9a0"/>
<circle cx="351.0" cy="187.0" r="2.86" fill="#ffd9a0"/>
<circle cx="377.0" cy="187.0" r="2.86" fill="#ffd9a0"/>
<circle cx="403.0" cy="187.0" r="2.86" fill="#ffd9a0"/>
<circle cx="429.0" cy="187.0" r="2.86" fill="#ffd9a0"/>
<circle cx="455.0" cy="187.0" r="2.86" fill="#ffd9a0"/>
<circle cx="481.0" cy="187.0" r="2.86" fill="#ffd9a0"/>
<circle cx="507.0" cy="187.0" r="2.86" fill="#ffd9a0"/>
<circle cx="533.0" cy="187.0" r="2.86" fill="#ffd9a0"/>
<circle cx="559.0" cy="187.0" r="2.86" fill="#ffd9a0"/>
<circle cx="585.0" cy="187.0" r="2.86" fill="#ffd9a0"/>
<circle cx="611.0" cy="187.0" r="2.86" fill="#ffd9a0"/>
<circle cx="637.0" cy="187.0" r="2.86" fill="#ffd9a0"/>
<circle cx="663.0" cy="187.0" r="2.86" fill="#ffd9a0"/>
<circle cx="689.0" cy="187.0" r="2.86" fill="#ffd9a0"/>
<rect x="704.08" y="176.08" width="21.84" height="21.84" rx="5.72" fill="#1420c8"/>
<rect x="2.08" y="202.08" width="21.84" height="21.84" rx="5.72" fill="#1420c8"/>
<circle cx="39.0" cy="213.0" r="2.86" fill="#ffd9a0"/>
<circle cx="65.0" cy="213.0" r="2.86" fill="#ffd9a0"/>
<rect x="80.08" y="202.08" width="21.84" height="21.84" rx="5.72" fill="#1420c8"/>
<circle cx="117.0" cy="213.0" r="2.86" fill="#ffd9a0"/>
<circle cx="143.0" cy="213.0" r="2.86" fill="#ffd9a0"/>
<circle cx="169.0" cy="213.0" r="2.86" fill="#ffd9a0"/>
<rect x="184.08" y="202.08" width="21.84" height="21.84" rx="5.72" fill="#1420c8"/>
<circle cx="221.0" cy="213.0" r="2.86" fill="#ffd9a0"/>
<circle cx="247.0" cy="213.0" r="2.86" fill="#ffd9a0"/>
<circle cx="273.0" cy="213.0" r="2.86" fill="#ffd9a0"/>
<rect x="288.08" y="202.08" width="21.84" height="21.84" rx="5.72" fill="#1420c8"/>
<circle cx="325.0" cy="213.0" r="2.86" fill="#ffd9a0"/>
<circle cx="351.0" cy="213.0" r="2.86" fill="#ffd9a0"/>
<circle cx="377.0" cy="213.0" r="2.86" fill="#ffd9a0"/>
<circle cx="403.0" cy="213.0" r="2.86" fill="#ffd9a0"/>
<rect x="418.08" y="202.08" width="21.84" height="21.84" rx="5.72" fill="#1420c8"/>
<circle cx="455.0" cy="213.0" r="2.86" fill="#ffd9a0"/>
<circle cx="481.0" cy="213.0" r="2.86" fill="#ffd9a0"/>
<circle cx="507.0" cy="213.0" r="2.86" fill="#ffd9a0"/>
<rect x="522.08" y="202.08" width="21.84" height="21.84" rx="5.72" fill="#1420c8"/>
<circle cx="559.0" cy="213.0" r="2.86" fill="#ffd9a0"/>
<circle cx="585.0" cy="213.0" r="2.86" fill="#ffd9a0"/>
<circle cx="611.0" cy="213.0" r="2.86" fill="#ffd9a0"/>
<rect x="626.08" y="202.08" width="21.84" height="21.84" rx="5.72" fill="#1420c8"/>
<circle cx="663.0" cy="213.0" r="2.86" fill="#ffd9a0"/>
<circle cx="689.0" cy="213.0" r="2.86" fill="#ffd9a0"/>
<rect x="704.08" y="202.08" width="21.84" height="21.84" rx="5.72" fill="#1420c8"/>
<rect x="2.08" y="228.08" width="21.84" height="21.84" rx="5.72" fill="#1420c8"/>
<circle cx="39.0" cy="239.0" r="2.86" fill="#ffd9a0"/>
<circle cx="65.0" cy="239.0" r="2.86" fill="#ffd9a0"/>
<rect x="80.08" y="228.08" width="21.84" height="21.84" rx="5.72" fill="#1420c8"/>
<circle cx="117.0" cy="239.0" r="2.86" fill="#ffd9a0"/>
<circle cx="143.0" cy="239.0" r="2.86" fill="#ffd9a0"/>
<circle cx="169.0" cy="239.0" r="2.86" fill="#ffd9a0"/>
<rect x="184.08" y="228.08" width="21.84" height="21.84" rx="5.72" fill="#1420c8"/>
<circle cx="221.0" cy="239.0" r="2.86" fill="#ffd9a0"/>
<circle cx="247.0" cy="239.0" r="2.86" fill="#ffd9a0"/>
<circle cx="273.0" cy="239.0" r="2.86" fill="#ffd9a0"/>
<rect x="288.08" y="228.08" width="21.84" height="21.84" rx="5.72" fill="#1420c8"/>
<circle cx="325.0" cy="239.0" r="2.86" fill="#ffd9a0"/>
<circle cx="351.0" cy="239.0" r="2.86" fill="#ffd9a0"/>
<circle cx="377.0" cy="239.0" r="2.86" fill="#ffd9a0"/>
<circle cx="403.0" cy="239.0" r="2.86" fill="#ffd9a0"/>
<rect x="418.08" y="228.08" width="21.84" height="21.84" rx="5.72" fill="#1420c8"/>
<circle cx="455.0" cy="239.0" r="2.86" fill="#ffd9a0"/>
<circle cx="481.0" cy="239.0" r="2.86" fill="#ffd9a0"/>
<circle cx="507.0" cy="239.0" r="2.86" fill="#ffd9a0"/>
<rect x="522.08" y="228.08" width="21.84" height="21.84" rx="5.72" fill="#1420c8"/>
<circle cx="559.0" cy="239.0" r="2.86" fill="#ffd9a0"/>
<circle cx="585.0" cy="239.0" r="2.86" fill="#ffd9a0"/>
<circle cx="611.0" cy="239.0" r="2.86" fill="#ffd9a0"/>
<rect x="626.08" y="228.08" width="21.84" height="21.84" rx="5.72" fill="#1420c8"/>
<circle cx="663.0" cy="239.0" r="2.86" fill="#ffd9a0"/>
<circle cx="689.0" cy="239.0" r="2.86" fill="#ffd9a0"/>
<rect x="704.08" y="228.08" width="21.84" height="21.84" rx="5.72" fill="#1420c8"/>
<rect x="2.08" y="254.08" width="21.84" height="21.84" rx="5.72" fill="#1420c8"/>
<circle cx="39.0" cy="265.0" r="2.86" fill="#ffd9a0"/>
<circle cx="65.0" cy="265.0" r="2.86" fill="#ffd9a0"/>
<circle cx="91.0" cy="265.0" r="2.86" fill="#ffd9a0"/>
<circle cx="117.0" cy="265.0" r="2.86" fill="#ffd9a0"/>
<circle cx="143.0" cy="265.0" r="2.86" fill="#ffd9a0"/>
<circle cx="169.0" cy="265.0" r="2.86" fill="#ffd9a0"/>
<circle cx="195.0" cy="265.0" r="2.86" fill="#ffd9a0"/>
<circle cx="221.0" cy="265.0" r="2.86" fill="#ffd9a0"/>
<circle cx="247.0" cy="265.0" r="2.86" fill="#ffd9a0"/>
<circle cx="273.0" cy="265.0" r="2.86" fill="#ffd9a0"/>
<circle cx="299.0" cy="265.0" r="2.86" fill="#ffd9a0"/>
<circle cx="325.0" cy="265.0" r="2.86" fill="#ffd9a0"/>
<circle cx="351.0" cy="265.0" r="2.86" fill="#ffd9a0"/>
<circle cx="377.0" cy="265.0" r="2.86" fill="#ffd9a0"/>
<circle cx="403.0" cy="265.0" r="2.86" fill="#ffd9a0"/>
<circle cx="429.0" cy="265.0" r="2.86" fill="#ffd9a0"/>
<circle cx="455.0" cy="265.0" r="2.86" fill="#ffd9a0"/>
<circle cx="481.0" cy="265.0" r="2.86" fill="#ffd9a0"/>
<circle cx="507.0" cy="265.0" r="2.86" fill="#ffd9a0"/>
<circle cx="533.0" cy="265.0" r="2.86" fill="#ffd9a0"/>
<circle cx="559.0" cy="265.0" r="2.86" fill="#ffd9a0"/>
<circle cx="585.0" cy="265.0" r="2.86" fill="#ffd9a0"/>
<circle cx="611.0" cy="265.0" r="2.86" fill="#ffd9a0"/>
<circle cx="637.0" cy="265.0" r="2.86" fill="#ffd9a0"/>
<circle cx="663.0" cy="265.0" r="2.86" fill="#ffd9a0"/>
<circle cx="689.0" cy="265.0" r="2.86" fill="#ffd9a0"/>
<rect x="704.08" y="254.08" width="21.84" height="21.84" rx="5.72" fill="#1420c8"/>
<rect x="2.08" y="280.08" width="21.84" height="21.84" rx="5.72" fill="#1420c8"/>
<circle cx="39.0" cy="291.0" r="2.86" fill="#ffd9a0"/>
<circle cx="65.0" cy="291.0" r="2.86" fill="#ffd9a0"/>
<rect x="80.08" y="280.08" width="21.84" height="21.84" rx="5.72" fill="#1420c8"/>
<circle cx="117.0" cy="291.0" r="2.86" fill="#ffd9a0"/>
<circle cx="143.0" cy="291.0" r="2.86" fill="#ffd9a0"/>
<circle cx="169.0" cy="291.0" r="2.86" fill="#ffd9a0"/>
<rect x="184.08" y="280.08" width="21.84" height="21.84" rx="5.72" fill="#1420c8"/>
<circle cx="221.0" cy="291.0" r="2.86" fill="#ffd9a0"/>
<circle cx="247.0" cy="291.0" r="2.86" fill="#ffd9a0"/>
<circle cx="273.0" cy="291.0" r="2.86" fill="#ffd9a0"/>
<rect x="288.08" y="280.08" width="21.84" height="21.84" rx="5.72" fill="#1420c8"/>
<circle cx="325.0" cy="291.0" r="2.86" fill="#ffd9a0"/>
<circle cx="351.0" cy="291.0" r="2.86" fill="#ffd9a0"/>
<circle cx="377.0" cy="291.0" r="2.86" fill="#ffd9a0"/>
<circle cx="403.0" cy="291.0" r="2.86" fill="#ffd9a0"/>
<rect x="418.08" y="280.08" width="21.84" height="21.84" rx="5.72" fill="#1420c8"/>
<circle cx="455.0" cy="291.0" r="2.86" fill="#ffd9a0"/>
<circle cx="481.0" cy="291.0" r="2.86" fill="#ffd9a0"/>
<circle cx="507.0" cy="291.0" r="2.86" fill="#ffd9a0"/>
<rect x="522.08" y="280.08" width="21.84" height="21.84" rx="5.72" fill="#1420c8"/>
<circle cx="559.0" cy="291.0" r="2.86" fill="#ffd9a0"/>
<circle cx="585.0" cy="291.0" r="2.86" fill="#ffd9a0"/>
<circle cx="611.0" cy="291.0" r="2.86" fill="#ffd9a0"/>
<rect x="626.08" y="280.08" width="21.84" height="21.84" rx="5.72" fill="#1420c8"/>
<circle cx="663.0" cy="291.0" r="2.86" fill="#ffd9a0"/>
<circle cx="689.0" cy="291.0" r="2.86" fill="#ffd9a0"/>
<rect x="704.08" y="280.08" width="21.84" height="21.84" rx="5.72" fill="#1420c8"/>
<rect x="2.08" y="306.08" width="21.84" height="21.84" rx="5.72" fill="#1420c8"/>
<circle cx="39.0" cy="317.0" r="2.86" fill="#ffd9a0"/>
<circle cx="65.0" cy="317.0" r="2.86" fill="#ffd9a0"/>
<rect x="80.08" y="306.08" width="21.84" height="21.84" rx="5.72" fill="#1420c8"/>
<circle cx="117.0" cy="317.0" r="2.86" fill="#ffd9a0"/>
<circle cx="143.0" cy="317.0" r="2.86" fill="#ffd9a0"/>
<circle cx="169.0" cy="317.0" r="2.86" fill="#ffd9a0"/>
<rect x="184.08" y="306.08" width="21.84" height="21.84" rx="5.72" fill="#1420c8"/>
<circle cx="221.0" cy="317.0" r="2.86" fill="#ffd9a0"/>
<circle cx="247.0" cy="317.0" r="2.86" fill="#ffd9a0"/>
<circle cx="273.0" cy="317.0" r="2.86" fill="#ffd9a0"/>
<rect x="288.08" y="306.08" width="21.84" height="21.84" rx="5.72" fill="#1420c8"/>
<circle cx="325.0" cy="317.0" r="2.86" fill="#ffd9a0"/>
<circle cx="351.0" cy="317.0" r="2.86" fill="#ffd9a0"/>
<circle cx="377.0" cy="317.0" r="2.86" fill="#ffd9a0"/>
<circle cx="403.0" cy="317.0" r="2.86" fill="#ffd9a0"/>
<rect x="418.08" y="306.08" width="21.84" height="21.84" rx="5.72" fill="#1420c8"/>
<circle cx="455.0" cy="317.0" r="2.86" fill="#ffd9a0"/>
<circle cx="481.0" cy="317.0" r="2.86" fill="#ffd9a0"/>
<circle cx="507.0" cy="317.0" r="2.86" fill="#ffd9a0"/>
<rect x="522.08" y="306.08" width="21.84" height="21.84" rx="5.72" fill="#1420c8"/>
<circle cx="559.0" cy="317.0" r="2.86" fill="#ffd9a0"/>
<circle cx="585.0" cy="317.0" r="2.86" fill="#ffd9a0"/>
<circle cx="611.0" cy="317.0" r="2.86" fill="#ffd9a0"/>
<rect x="626.08" y="306.08" width="21.84" height="21.84" rx="5.72" fill="#1420c8"/>
<circle cx="663.0" cy="317.0" r="2.86" fill="#ffd9a0"/>
<circle cx="689.0" cy="317.0" r="2.86" fill="#ffd9a0"/>
<rect x="704.08" y="306.08" width="21.84" height="21.84" rx="5.72" fill="#1420c8"/>
<rect x="2.08" y="332.08" width="21.84" height="21.84" rx="5.72" fill="#1420c8"/>
<circle cx="39.0" cy="343.0" r="2.86" fill="#ffd9a0"/>
<text x="91.0" y="343.0" font-size="23.4" text-anchor="middle" dominant-baseline="central">🍒</text>
<circle cx="117.0" cy="343.0" r="2.86" fill="#ffd9a0"/>
<circle cx="143.0" cy="343.0" r="2.86" fill="#ffd9a0"/>
<circle cx="169.0" cy="343.0" r="2.86" fill="#ffd9a0"/>
<circle cx="195.0" cy="343.0" r="2.86" fill="#ffd9a0"/>
<circle cx="221.0" cy="343.0" r="2.86" fill="#ffd9a0"/>
<circle cx="247.0" cy="343.0" r="2.86" fill="#ffd9a0"/>
<circle cx="273.0" cy="343.0" r="2.86" fill="#ffd9a0"/>
<circle cx="299.0" cy="343.0" r="2.86" fill="#ffd9a0"/>
<circle cx="325.0" cy="343.0" r="2.86" fill="#ffd9a0"/>
<circle cx="351.0" cy="343.0" r="2.86" fill="#ffd9a0"/>
<circle cx="377.0" cy="343.0" r="2.86" fill="#ffd9a0"/>
<circle cx="403.0" cy="343.0" r="2.86" fill="#ffd9a0"/>
<circle cx="429.0" cy="343.0" r="2.86" fill="#ffd9a0"/>
<circle cx="455.0" cy="343.0" r="2.86" fill="#ffd9a0"/>
<circle cx="481.0" cy="343.0" r="2.86" fill="#ffd9a0"/>
<circle cx="507.0" cy="343.0" r="2.86" fill="#ffd9a0"/>
<circle cx="533.0" cy="343.0" r="2.86" fill="#ffd9a0"/>
<circle cx="559.0" cy="343.0" r="2.86" fill="#ffd9a0"/>
<circle cx="585.0" cy="343.0" r="2.86" fill="#ffd9a0"/>
<circle cx="611.0" cy="343.0" r="2.86" fill="#ffd9a0"/>
<text x="637.0" y="343.0" font-size="23.4" text-anchor="middle" dominant-baseline="central">🍒</text>
<circle cx="689.0" cy="343.0" r="2.86" fill="#ffd9a0"/>
<rect x="704.08" y="332.08" width="21.84" height="21.84" rx="5.72" fill="#1420c8"/>
<rect x="2.08" y="358.08" width="21.84" height="21.84" rx="5.72" fill="#1420c8"/>
<circle cx="39.0" cy="369.0" r="2.86" fill="#ffd9a0"/>
<circle cx="65.0" cy="369.0" r="2.86" fill="#ffd9a0"/>
<circle cx="91.0" cy="369.0" r="2.86" fill="#ffd9a0"/>
<circle cx="117.0" cy="369.0" r="2.86" fill="#ffd9a0"/>
<circle cx="143.0" cy="369.0" r="2.86" fill="#ffd9a0"/>
<circle cx="169.0" cy="369.0" r="2.86" fill="#ffd9a0"/>
<circle cx="195.0" cy="369.0" r="2.86" fill="#ffd9a0"/>
<circle cx="221.0" cy="369.0" r="2.86" fill="#ffd9a0"/>
<circle cx="247.0" cy="369.0" r="2.86" fill="#ffd9a0"/>
<circle cx="273.0" cy="369.0" r="2.86" fill="#ffd9a0"/>
<circle cx="299.0" cy="369.0" r="2.86" fill="#ffd9a0"/>
<circle cx="325.0" cy="369.0" r="2.86" fill="#ffd9a0"/>
<circle cx="377.0" cy="369.0" r="2.86" fill="#ffd9a0"/>
<circle cx="403.0" cy="369.0" r="2.86" fill="#ffd9a0"/>
<circle cx="429.0" cy="369.0" r="2.86" fill="#ffd9a0"/>
<circle cx="455.0" cy="369.0" r="2.86" fill="#ffd9a0"/>
<circle cx="481.0" cy="369.0" r="2.86" fill="#ffd9a0"/>
<circle cx="507.0" cy="369.0" r="2.86" fill="#ffd9a0"/>
<circle cx="533.0" cy="369.0" r="2.86" fill="#ffd9a0"/>
<circle cx="559.0" cy="369.0" r="2.86" fill="#ffd9a0"/>
<circle cx="585.0" cy="369.0" r="2.86" fill="#ffd9a0"/>
<circle cx="611.0" cy="369.0" r="2.86" fill="#ffd9a0"/>
<circle cx="637.0" cy="369.0" r="2.86" fill="#ffd9a0"/>
<circle cx="663.0" cy="369.0" r="2.86" fill="#ffd9a0"/>
<circle cx="689.0" cy="369.0" r="2.86" fill="#ffd9a0"/>
<rect x="704.08" y="358.08" width="21.84" height="21.84" rx="5.72" fill="#1420c8"/>
<rect x="2.08" y="384.08" width="21.84" height="21.84" rx="5.72" fill="#1420c8"/>
<rect x="28.08" y="384.08" width="21.84" height="21.84" rx="5.72" fill="#1420c8"/>
<rect x="54.08" y="384.08" width="21.84" height="21.84" rx="5.72" fill="#1420c8"/>
<rect x="80.08" y="384.08" width="21.84" height="21.84" rx="5.72" fill="#1420c8"/>
<rect x="106.08" y="384.08" width="21.84" height="21.84" rx="5.72" fill="#1420c8"/>
<rect x="132.08" y="384.08" width="21.84" height="21.84" rx="5.72" fill="#1420c8"/>
<rect x="158.08" y="384.08" width="21.84" height="21.84" rx="5.72" fill="#1420c8"/>
<rect x="184.08" y="384.08" width="21.84" height="21.84" rx="5.72" fill="#1420c8"/>
<rect x="210.08" y="384.08" width="21.84" height="21.84" rx="5.72" fill="#1420c8"/>
<rect x="236.08" y="384.08" width="21.84" height="21.84" rx="5.72" fill="#1420c8"/>
<rect x="262.08" y="384.08" width="21.84" height="21.84" rx="5.72" fill="#1420c8"/>
<rect x="288.08" y="384.08" width="21.84" height="21.84" rx="5.72" fill="#1420c8"/>
<rect x="314.08" y="384.08" width="21.84" height="21.84" rx="5.72" fill="#1420c8"/>
<rect x="340.08" y="384.08" width="21.84" height="21.84" rx="5.72" fill="#1420c8"/>
<rect x="366.08" y="384.08" width="21.84" height="21.84" rx="5.72" fill="#1420c8"/>
<rect x="392.08" y="384.08" width="21.84" height="21.84" rx="5.72" fill="#1420c8"/>
<rect x="418.08" y="384.08" width="21.84" height="21.84" rx="5.72" fill="#1420c8"/>
<rect x="444.08" y="384.08" width="21.84" height="21.84" rx="5.72" fill="#1420c8"/>
<rect x="470.08" y="384.08" width="21.84" height="21.84" rx="5.72" fill="#1420c8"/>
<rect x="496.08" y="384.08" width="21.84" height="21.84" rx="5.72" fill="#1420c8"/>
<rect x="522.08" y="384.08" width="21.84" height="21.84" rx="5.72" fill="#1420c8"/>
<rect x="548.08" y="384.08" width="21.84" height="21.84" rx="5.72" fill="#1420c8"/>
<rect x="574.08" y="384.08" width="21.84" height="21.84" rx="5.72" fill="#1420c8"/>
<rect x="600.08" y="384.08" width="21.84" height="21.84" rx="5.72" fill="#1420c8"/>
<rect x="626.08" y="384.08" width="21.84" height="21.84" rx="5.72" fill="#1420c8"/>
<rect x="652.08" y="384.08" width="21.84" height="21.84" rx="5.72" fill="#1420c8"/>
<rect x="678.08" y="384.08" width="21.84" height="21.84" rx="5.72" fill="#1420c8"/>
<rect x="704.08" y="384.08" width="21.84" height="21.84" rx="5.72" fill="#1420c8"/>
<path d="M 53.3 118.36 L 53.3 107.83 A 11.7 11.7 0 0 1 76.7 107.83 L 76.7 118.36 Q 73.78 114.85 70.85 118.36 Q 67.92 114.85 65.0 118.36 Q 62.08 114.85 59.15 118.36 Q 56.23 114.85 53.3 118.36 Z" fill="#ff0000"/>
<circle cx="60.55" cy="107.25" r="3.28" fill="#ffffff"/>
<circle cx="62.11" cy="108.66" r="1.64" fill="#0018aa"/>
<circle cx="69.45" cy="107.25" r="3.28" fill="#ffffff"/>
<circle cx="71.00" cy="108.66" r="1.64" fill="#0018aa"/>
<path d="M 651.3 118.36 L 651.3 107.83 A 11.7 11.7 0 0 1 674.7 107.83 L 674.7 118.36 Q 671.78 114.85 668.85 118.36 Q 665.93 114.85 663.0 118.36 Q 660.08 114.85 657.15 118.36 Q 654.23 114.85 651.3 118.36 Z" fill="#2ee66b"/>
<circle cx="658.55" cy="107.25" r="3.28" fill="#ffffff"/>
<circle cx="656.94" cy="108.59" r="1.64" fill="#0018aa"/>
<circle cx="667.45" cy="107.25" r="3.28" fill="#ffffff"/>
<circle cx="665.83" cy="108.59" r="1.64" fill="#0018aa"/>
<path d="M 53.3 352.36 L 53.3 341.83 A 11.7 11.7 0 0 1 76.7 341.83 L 76.7 352.36 Q 73.78 348.85 70.85 352.36 Q 67.92 348.85 65.0 352.36 Q 62.08 348.85 59.15 352.36 Q 56.23 348.85 53.3 352.36 Z" fill="#33ddff"/>
<circle cx="60.55" cy="341.25" r="3.28" fill="#ffffff"/>
<circle cx="62.65" cy="341.44" r="1.64" fill="#0018aa"/>
<circle cx="69.45" cy="341.25" r="3.28" fill="#ffffff"/>
<circle cx="71.54" cy="341.44" r="1.64" fill="#0018aa"/>
<path d="M 651.3 352.36 L 651.3 341.83 A 11.7 11.7 0 0 1 674.7 341.83 L 674.7 352.36 Q 671.78 348.85 668.85 352.36 Q 665.93 348.85 663.0 352.36 Q 660.08 348.85 657.15 352.36 Q 654.23 348.85 651.3 352.36 Z" fill="#ff9d2e"/>
<circle cx="658.55" cy="341.25" r="3.28" fill="#ffffff"/>
<circle cx="656.46" cy="341.42" r="1.64" fill="#0018aa"/>
<circle cx="667.45" cy="341.25" r="3.28" fill="#ffffff"/>
<circle cx="665.35" cy="341.42" r="1.64" fill="#0018aa"/>
<path d="M 351.0 369.0 L 360.47 362.12 A 11.7 11.7 0 1 0 360.47 375.88 Z" fill="#ffe11a"/>
<text x="6" y="30" font-size="20" fill="#ffffff">SKÓRE: 1250</text>
<text x="364" y="30" font-size="20" fill="#ffffff" text-anchor="middle">LEVEL 7/10</text>
<text x="722" y="30" font-size="20" text-anchor="end"><tspan fill="#ffffff">ŽIVOTY: </tspan><tspan fill="#ff4d4d">♥♥♥</tspan></text>
</svg>
